<?xml version="1.0" encoding="utf-8"?>
<!-- Generator: Adobe Illustrator 27.5.0, SVG Export Plug-In . SVG Version: 6.00 Build 0)  -->
<svg version="1.1" xmlns="http://www.w3.org/2000/svg" xmlns:xlink="http://www.w3.org/1999/xlink" x="0px" y="0px"
	 viewBox="0 0 750 500" style="enable-background:new 0 0 750 500;" xml:space="preserve">
<g id="Background">
	<linearGradient id="SVGID_1_" gradientUnits="userSpaceOnUse" x1="379.2985" y1="500.0371" x2="370.2992" y2="-23.4366">
		<stop  offset="0" style="stop-color:#EDF4FE"/>
		<stop  offset="0.3067" style="stop-color:#C1E3FF"/>
		<stop  offset="0.6778" style="stop-color:#6BB9F0"/>
		<stop  offset="1" style="stop-color:#0169C5"/>
	</linearGradient>
	<rect style="fill:url(#SVGID_1_);" width="750" height="500"/>
</g>
<g id="Objects">
	<g>
		<g>
			<defs>
				<rect id="SVGID_00000137094718242297835300000001936572745954170266_" y="151.095" width="750" height="348.905"/>
			</defs>
			<clipPath id="SVGID_00000082363009001938666380000009540174938063592618_">
				<use xlink:href="#SVGID_00000137094718242297835300000001936572745954170266_"  style="overflow:visible;"/>
			</clipPath>
			
				<linearGradient id="SVGID_00000168802487671603922890000002076150530921007265_" gradientUnits="userSpaceOnUse" x1="312.8829" y1="315.6815" x2="453.383" y2="409.1816">
				<stop  offset="0" style="stop-color:#EDF4FE"/>
				<stop  offset="1" style="stop-color:#6BB9F0"/>
			</linearGradient>
			
				<path style="clip-path:url(#SVGID_00000082363009001938666380000009540174938063592618_);fill:url(#SVGID_00000168802487671603922890000002076150530921007265_);" d="
				M263.75,331.417c12.268-6.283,33.5-6.25,42.706,4.106C312.25,320,330.31,307.841,349.75,308c13.202,0.107,42,5.25,45.335,40.66
				c-1.002-5.993,10.498-8.66,12.517-0.77c0.398-5.141,8.148-6.891,12.455,0.42c-4.39-7.477-5.863-13.881-5.724-23.143
				C415,281,471,286.917,475.047,305.573c2.467-8.021,18.803-8.363,21.513-0.458c5.565-7.823,15.03-8.906,23.44-6.698
				c20,5.25,29.167,29.333,31.5,46c2.86,20.433-1.137,76.876-9.555,86.811c-5.697,6.722-12.965,8.253-21.172,10.788
				c-19.145,5.912-38.092,9.272-57.768,12.665c-31.611,5.451-65.047,4.486-97.132,4.486c-26.297,0-51.69-1.851-77.186-8.977
				c-13.788-3.855-30.805-9.768-37.392-23.44c-5.273-10.943-5.443-22.772-3.413-34.515
				C248.647,387.81,228.065,349.693,263.75,331.417z"/>
			<g style="clip-path:url(#SVGID_00000082363009001938666380000009540174938063592618_);">
				<path style="opacity:0.8;fill:#EDF4FE;" d="M532,314.704c-14.886,1.336-20.498-20.701-19.375-31.708
					c1.5-14.706,13.625-22.748,27.294-18.151c-4.169-4.213,3.206-10.686,7.615-7.808c-0.534-8.89,5.142-16.161,17.466-21.297
					c14.333-5.974,30.333-0.154,35,8.896c-0.469-3.407,2.417-4.913,6.098-2.652c0.896-1.388,2.617-2.148,4.501-1.492
					c-7.266-12.87,0.356-30.076,18.568-36c13.639-4.437,31.166,0.613,36.456,12.262c-2.248-4.832,3.688-8.731,6.942-4.722
					c-5.003-6.487-7.067-12.381-6.612-22.04c1.297-27.472,35.29-28.399,40.45-20.238c4.9-15.782,43.112-13.622,45.593,2.246
					c1.532,9.796,1.541,148.646-3.794,149.4C736.057,323.116,585,315.623,532,314.704z"/>
				
					<linearGradient id="SVGID_00000013897118769713831610000006807428603644613543_" gradientUnits="userSpaceOnUse" x1="516.6702" y1="244.2383" x2="756.2148" y2="244.2383">
					<stop  offset="0" style="stop-color:#EDF4FE"/>
					<stop  offset="0.5644" style="stop-color:#BDE1FE"/>
					<stop  offset="1" style="stop-color:#6BB9F0"/>
				</linearGradient>
				<path style="fill:url(#SVGID_00000013897118769713831610000006807428603644613543_);" d="M536.5,313.709
					c-17.167-2.604-20.417-18.688-19.75-27.42c1-13.097,9.021-17.938,15.417-18.918c3.5-0.535,7.583-0.995,11.086,1.457
					c-4.17-4.214,3.205-10.686,7.614-7.809c0.8-11.034,5.882-19.344,18.966-22.522c10.926-2.655,25.334,1.225,33.5,10.121
					c-1.999-3.611,4.418-5.832,6.099-2.652c0.896-1.388,2.617-2.148,4.501-1.492c-7.266-12.87,0.355-30.077,18.567-36.001
					c13.639-4.436,31.167,0.613,36.456,12.262c-2.248-4.833,3.688-8.731,6.942-4.723c-5.003-6.486-7.067-12.38-6.611-22.039
					c1.296-27.472,35.289-28.399,40.449-20.238c4.9-15.782,43.112-13.622,45.594,2.246c1.531,9.797,1.541,148.646-3.795,149.4
					C739.391,327.1,589.5,314.628,536.5,313.709z"/>
			</g>
			<g style="clip-path:url(#SVGID_00000082363009001938666380000009540174938063592618_);">
				<path style="opacity:0.8;fill:#EDF4FE;" d="M449.5,381.096c-1.896-4.612-4.143-14.03,2.75-19.993
					c3.837-3.32,12.292-4.869,14.398-0.342c-5.35-5.557-6.538-15.028-1.248-20.638c5.289-5.609,16.889-4.286,19.329,2.908
					c-12.479-16.638,13.021-50.108,40.743-30.821c-6.444-13.351-1.184-30.885,11.672-38.902C550,265.29,569,269.5,574.25,278.75
					c1.75-9.125,8.667-18.5,24.167-19c11.181-0.36,18.322,4.558,21.083,12.5c3.394-6.461,11.158-11.191,18.694-11.396
					c7.536-0.204,15.038,3.819,18.806,10.087c3.25-9.487,19.501-12.608,29.167-1.108C689.25,263.5,696.416,252.334,713,248
					c20.311-5.308,50.333,0.667,48.25,52.5c-1.242,30.909,0.866,106.031-2,106.987c-15.813,5.275-269.514-0.402-276.625-2.879
					C467.821,399.453,455.557,395.836,449.5,381.096z"/>
				
					<linearGradient id="SVGID_00000060018368624180461250000008030259989758658181_" gradientUnits="userSpaceOnUse" x1="425.2785" y1="335.5529" x2="683.1616" y2="333.5955">
					<stop  offset="0" style="stop-color:#EDF4FE"/>
					<stop  offset="0.5644" style="stop-color:#BDE1FE"/>
					<stop  offset="1" style="stop-color:#6BB9F0"/>
				</linearGradient>
				<path style="fill:url(#SVGID_00000060018368624180461250000008030259989758658181_);" d="M447.333,386.454
					c-1.895-4.612-4.143-14.03,2.75-19.993c3.838-3.32,12.292-4.869,14.398-0.342c-5.35-5.557-6.538-15.028-1.248-20.638
					c5.29-5.609,16.889-4.286,19.329,2.908c-12.479-16.638,13.021-50.107,40.744-30.821c-6.445-13.351-1.185-30.885,11.671-38.902
					c12.856-8.018,31.689-5.509,41.783,5.565c-6.326-9.331,9.322-24.217,24.697-21.338c9.155,1.715,16.292,5.198,16.386,14.407
					c3.394-6.461,10.647-10.884,18.183-11.088c7.537-0.204,15.038,3.819,18.807,10.087c3.249-9.487,26.416-10.607,29.122,1.039
					C709.25,234.75,748.5,254.5,754.5,271c0,0,5.449,140.89,2.583,141.846c-15.813,5.275-269.513-0.402-276.625-2.879
					C465.654,404.811,453.39,401.194,447.333,386.454z"/>
			</g>
			<g style="clip-path:url(#SVGID_00000082363009001938666380000009540174938063592618_);">
				<path style="fill:#EDF4FE;" d="M0.475,326.077c-1.404-3.552-2.811-7.384-1.308-10.911c1.502-3.528,7.279-6.147,11.225-4.048
					c-3.996-9.108-1.309-15.109,6.316-20.126c6.416-4.22,19.042-5.273,26.042,1.715c-0.009-3.205,1.375-7.96,11-9.125
					c5.955-0.72,12.575,3.061,12.019,6.236c-1.742-14.883,16.207-28.428,35.419-29.269c19.213-0.841,37.472,8.97,46.847,22.02
					c9.375,13.051,10.967,28.741,8.62,43.573c3.28-2.877,9.244-3.637,13.535-1.723c4.292,1.914,6.453,6.297,4.907,9.946
					c9.153-5.838,24.005-4.335,33.737,1.301c9.732,5.638,15.598,19.169,10.271,27.642c7.395-5.496,19.73-9.482,33.521-5.434
					c11.5,3.375,15.75,15.75,15.518,21.983c15.524-13.525,31.024-15.858,54.024-10.191c22.417,5.523,35.833,26,34.293,42.077
					c5.606-8.391,20.342-11.346,31.75-8.049c11.408,3.297,19.529,11.473,23.969,20.274c8.9,17.644,2.601,40.791-18.738,49.982
					c-9.831,4.235-273.869,10.64-393.14-2.607c-7.057-0.783-14.345-1.67-20.352-4.649c-10.486-5.202-23.031-96.069-9.708-125.613
					C-26.165,333.108-12.055,322.225,0.475,326.077z"/>
				
					<linearGradient id="SVGID_00000040567659492724627790000011338753846528050309_" gradientUnits="userSpaceOnUse" x1="376.2691" y1="357.7379" x2="-47.3583" y2="411.7751">
					<stop  offset="0" style="stop-color:#EDF4FE"/>
					<stop  offset="0.5644" style="stop-color:#BDE1FE"/>
					<stop  offset="1" style="stop-color:#6BB9F0"/>
				</linearGradient>
				<path style="fill:url(#SVGID_00000040567659492724627790000011338753846528050309_);" d="M1.808,332.809
					c-1.405-3.553-2.811-7.385-1.308-10.912c1.502-3.528,7.279-6.149,11.225-4.047c-3.407-9.723-2.912-14.089,6.608-20.937
					c6.75-4.853,18.75-4.464,25.75,2.524c-0.009-3.205,1.375-7.96,11-9.125c5.955-0.721,12.575,3.06,12.02,6.236
					c-1.742-14.883,16.207-28.429,35.419-29.268c19.212-0.841,37.471,8.969,46.847,22.02c9.375,13.052,10.967,28.741,8.62,43.574
					c3.28-2.878,9.244-3.637,13.535-1.724c4.292,1.914,6.453,6.297,4.906,9.946c9.154-5.838,23.589-4.982,33.321,0.653
					c9.732,5.637,16.015,19.817,10.688,28.289c8.395-7.206,19.215-12.924,37.062-5.539c9.667,4,13.333,15,11.976,22.089
					c12.858-13.256,32.326-16.504,51.858-10.589c23.667,7.167,33.667,23.667,36.46,42.476c5.606-8.391,20.342-11.346,31.75-8.05
					c11.408,3.297,19.529,11.472,23.97,20.274c8.899,17.643,2.6,40.791-18.738,49.983c-9.831,4.233-273.87,10.639-393.141-2.608
					c-7.057-0.782-14.344-1.67-20.352-4.649c-10.487-5.201-23.032-96.068-9.708-125.613
					C-24.831,339.839-10.721,328.955,1.808,332.809z"/>
			</g>
			
				<linearGradient id="SVGID_00000143610968407266279420000002698305938086789003_" gradientUnits="userSpaceOnUse" x1="382.9114" y1="308.92" x2="393.1248" y2="493.8947">
				<stop  offset="0" style="stop-color:#EDF4FE"/>
				<stop  offset="0.4801" style="stop-color:#BDE1FE"/>
				<stop  offset="0.6856" style="stop-color:#97CEF7"/>
				<stop  offset="0.8879" style="stop-color:#77BFF2"/>
				<stop  offset="1" style="stop-color:#6BB9F0"/>
			</linearGradient>
			
				<path style="clip-path:url(#SVGID_00000082363009001938666380000009540174938063592618_);fill:url(#SVGID_00000143610968407266279420000002698305938086789003_);" d="
				M-5.501,340.953C7.095,322.459,52,326.75,55.5,357c14.5-3.5,25,3.692,27.375,18.588c7.5-4.963,20.194-4.217,29,1.412
				c12.125,7.75,12.25,20.99,11.25,27.651c8.081-6.948,27.125-0.727,27.125,11.867c3.868-6.555,10.35-11.821,18.25-10.656
				c11.5,1.695,15.501,7.544,18.235,14.574c1.765-5.371,4.015-21.841,25.015-22.567c21-0.727,24.185,14.282,25.641,19.383
				c4.484-7.636,20.57-9.836,28.609-0.975c8.039,8.862,6.514,17.435,5.066,28.949c7.26-3.724,16.952-2.82,23.271,2.169
				c6.32,4.99,8.85,13.734,6.075,20.999c8.068-9.474,26.388-8.488,33.229,1.786c-2.894-10.233,2.29-21.97,12.083-27.358
				c9.793-5.39,23.353-3.969,31.609,3.313c-7.001-8.222-7.996-24.939,2.124-34.349c9.625-8.948,27.042-8.75,36.973,0.498
				c-3.473-11.887-2.628-27.23,8.027-37.223c10.656-9.992,35.546-12.947,43.266-0.844c1.276-3.474,6.026-8.44,14.151-6.018
				c4.433,1.321,9.25,6.298,8.125,13.442c9-7.75,20.338-9.084,32.25-2.18c11.912,6.903,15.935,22.463,9.308,33.967
				c6.205-7.54,19.037-9.4,27.417-3.975c-13.666-24.869-11.178-53.154,11.608-71.351c12.255-9.786,33.584-18.284,48.677-9.982
				c-2.286-2.574-1.662-6.918,1.272-8.844c2.933-1.927,7.544-1.022,9.39,1.843c-4.088-15.442,25.287-31.247,41.537-10.793
				c-0.875-14.991,22.625-16.774,25.879-8.478c-2.84-14.635,9.622-30.259,25.509-31.98c15.886-1.722,31.88,10.819,32.736,25.667
				c14.14-3.319,29.687,9.385,27.962,22.849L780.583,549l-785.25-8.213L-5.501,340.953z"/>
			
				<linearGradient id="SVGID_00000085964230232505729480000004627175982166774912_" gradientUnits="userSpaceOnUse" x1="486.9387" y1="515.8952" x2="733.6052" y2="446.5618">
				<stop  offset="0" style="stop-color:#EDF4FE"/>
				<stop  offset="0.5644" style="stop-color:#BDE1FE"/>
				<stop  offset="1" style="stop-color:#6BB9F0"/>
			</linearGradient>
			
				<path style="clip-path:url(#SVGID_00000082363009001938666380000009540174938063592618_);fill:url(#SVGID_00000085964230232505729480000004627175982166774912_);" d="
				M386.333,519.083c-0.701-0.183-7.625-13.729-6.849-28.337c0.268-5.069,5.186-16.391,15.07-18.883
				c4.872-1.228,10.291-0.836,14.624,1.632c0.419-7.586,6.228-14.618,12.776-18.471c14.628-8.607,33.444-1.545,36.454,2.867
				c-2.359-6.725,1.699-15.932,7.258-20.392c12.338-9.9,38.25-11.333,46.962,7.392c0.461-3.781,5.879-5.076,9.081-3.013
				c3.202,2.064,4.6,5.969,5.706,9.614c5.327-2.77,11.871-3.623,17.381-1.236c5.511,2.387,9.545,8.402,8.656,14.341
				c-0.185-4.304,4.669-7.889,8.942-8.431c4.273-0.542,8.219,0.813,11.896,2.727c-8.021-9.414-4.385-17.409-2.271-20.602
				c2.938-4.438,11.482-8.17,15.188-5.75c-3.75-6.25-3.703-14.62,0.292-21.042c5.267-8.463,17.072-9.733,25.157-3.903
				c3.76-8.764,6.344-15.071,14.01-19.68c13.791-8.292,30.05-10.102,45.729,2.25c4.938,3.89,9.682,11.796,10.229,18.058
				c4.085-6.235,13.301-6.632,19.583-2.62c6.283,4.011,9.314,11.327,7.67,18.598c5.893-2.723,18.604-4.941,24.83,6.027
				c2.065,3.638,2.688,11.125,1.179,14.197c5.79-4.604,16.013-4.093,22.509,0.178c6.497,4.271,10.034,12.344,10.684,20.091v62.472
				L386.333,519.083z"/>
			
				<linearGradient id="SVGID_00000159463884895010449250000017551444978809174715_" gradientUnits="userSpaceOnUse" x1="-9.5901" y1="517.1815" x2="171.0759" y2="415.8486">
				<stop  offset="0" style="stop-color:#EDF4FE"/>
				<stop  offset="0.3743" style="stop-color:#BDE1FE"/>
				<stop  offset="1" style="stop-color:#6BB9F0"/>
			</linearGradient>
			
				<path style="clip-path:url(#SVGID_00000082363009001938666380000009540174938063592618_);fill:url(#SVGID_00000159463884895010449250000017551444978809174715_);" d="
				M-15.792,372.25c-1.169-10.233,6.704-25.638,14.458-32.417c7.754-6.778,22.064-8.071,31.812-4.744
				c15.855,5.411,21.494,21.502,22.367,33.194c2.989-4.95,11.373-5.073,17.572-2.2c6.199,2.874,11.425,10.197,8.044,16.134
				c6.456-4.8,15.742-4.744,22.873-0.55c7.131,4.193,10.833,16,7.205,21.824c8.233-1.741,15.088,4.573,16.462,12.509
				s-2.09,14.5-8.853,18.873c5.482-2.512,12.48-1.199,16.679,3.127c4.199,4.327,5.302,11.361,2.628,16.766
				c-1.275-6.279,2.402-13.37,8.477-15.409c6.074-2.038,13.624,1.858,14.968,8.123c-2.478-10.418,5.942-20.189,16.109-23.554
				c23.575-7.801,37.825,1.407,43.575,6.741c6.648,6.166,12.124,15.467,11.009,23.453c3.356-3.927,9.358-5.318,14.1-3.268
				c4.741,2.05,7.84,7.375,7.279,12.51c5.164-8.165,16.943-9.299,26.142-6.346c7.994,2.566,15.514,7.947,18.576,15.765
				c3.061,7.817,0.376,18.061-7.144,21.794c5.083-2.895,12.064-1.918,16.158,2.262c4.093,4.179,4.926,11.179,1.927,16.201
				L-16.917,514L-15.792,372.25z"/>
		</g>
		<g>
			<g>
				<path style="fill:#EDF4FE;" d="M230.483,80.995c-0.984,1.561-4.81,4.103-9.85,4.186c-2.847,0.061-6.012-0.635-9.071-2.614
					c-0.601,2.539-1.574,4.964-4.659,6.105c-2.361,0.869-6.499,1.625-7.771-0.068c-0.751,2.41-1.423,5.07-6.613,5.916
					c-2.573,0.423-7.807,0.219-11.025-2.153c0.186,1.678-1.273,4.277-2.263,5.682c-2.971,4.231-7.807,6.09-13.368,7.02
					c-5.473,0.914-12.59,0.589-17.417-2.078c-3.369-1.851-4.827-4.556-6.437-7.533c-0.415,2.327-3.359,3.076-6.374,1.995
					c-2.538-0.899-2.599-2.751-2.175-4.466c-1.406,3.838-3.935,7.413-7.63,9.906c-6.913,4.677-14.464,5.637-23.102,4.73
					c-8.187-0.854-15.172-6.732-14.96-13.835c-2.918,3.083-5.623,4.858-10.61,3.815c-2.034-0.431-5.102-2.901-4.5-6.634
					c-1.981,3.362-24.031,8.356-22.979-3.347c-2.793,0.491-5.331,1.254-8.231,1.314c-0.177,0-0.372,0-0.575-0.007
					c-3.545-0.099-11.123-1.761-10.707-10.163c0.637-12.694,19.418-12.257,25.669-6.349c0.5-3.75,1.577-7.94,6.333-11.167
					c6.931-4.707,17.252-2.146,18.481-0.098c-1.361-2.954,0.019-7.569,3.436-9.819c6.418-4.227,12.488-1.212,14.371,1.644
					c0.129-2.227,0.879-4.894,4.879-5.394c4-0.5,5.667,2.667,6.083,4.375c0.667-6.708,6.858-14.255,17.25-14.813
					c12.813-0.688,18.813,9.625,18.625,11.688c-0.104-1.267,0.542-2.417,1.959-2.292c1.754,0.155,2.354,1.479,1.916,3.104
					c1.764-4.291,7.75-6.854,14.667-4.229c4.387,1.665,7.333,6.417,6.607,9.638c0.893-2.722,3.456-5.716,7.81-4.472
					c4.666,1.333,4.25,5.5,3.666,7.417c3.958-5.006,13.069-8.893,22.5-3.417c7.75,4.5,8.584,12.25,7.534,15.115
					c7.692-4.557,14.494-1.483,17.904,2.697C231.792,74.771,232.042,78.521,230.483,80.995z"/>
				
					<linearGradient id="SVGID_00000174603196083135123750000002055835664457615513_" gradientUnits="userSpaceOnUse" x1="29.5647" y1="74.9375" x2="230.9175" y2="74.9375">
					<stop  offset="0" style="stop-color:#EDF4FE"/>
					<stop  offset="0.5644" style="stop-color:#BDE1FE"/>
					<stop  offset="1" style="stop-color:#6BB9F0"/>
				</linearGradient>
				<path style="fill:url(#SVGID_00000174603196083135123750000002055835664457615513_);" d="M229.899,83.411
					c-0.984,1.561-4.81,4.103-9.85,4.186c-2.847,0.061-6.012-0.635-9.071-2.614c-0.601,2.539-1.574,4.964-4.659,6.105
					c-2.361,0.869-6.498,1.624-7.771-0.068c-0.751,2.41-1.423,5.07-6.613,5.916c-2.573,0.423-7.807,0.219-11.025-2.153
					c0.186,1.678-1.273,4.277-2.263,5.682c-2.971,4.231-7.807,6.09-13.368,7.02c-5.473,0.914-12.59,0.589-17.417-2.078
					c-3.369-1.851-4.827-4.556-6.437-7.533c-0.415,2.327-3.359,3.076-6.374,1.995c-2.538-0.899-2.599-2.75-2.175-4.466
					c-1.406,3.838-3.935,7.413-7.63,9.906c-6.913,4.677-14.464,5.637-23.102,4.73c-8.187-0.854-15.172-6.732-14.959-13.834
					c-2.918,3.082-5.624,4.858-10.61,3.815c-2.034-0.431-5.102-2.901-4.5-6.634c-1.98,3.362-24.031,8.356-22.979-3.347
					c-2.793,0.491-5.331,1.254-8.231,1.314c-0.177,0-0.372,0-0.575-0.007c-3.545-0.099-11.123-1.761-10.707-10.163
					C30.218,68.488,49,68.925,55.25,74.834c0.5-3.75,1.577-7.94,6.333-11.167c6.931-4.707,17.252-2.146,18.481-0.098
					c-1.361-2.954,0.019-7.569,3.436-9.819c6.418-4.227,12.488-1.212,14.371,1.644c0.129-2.227,0.879-4.894,4.879-5.394
					s5.666,2.667,6.083,4.375c0.667-6.708,6.858-14.255,17.25-14.813c12.813-0.688,18.813,9.625,18.625,11.688
					c-0.105-1.267,0.542-2.417,1.958-2.292c1.754,0.155,2.354,1.479,1.917,3.104c1.764-4.291,7.75-6.854,14.666-4.229
					c4.387,1.665,7.334,6.417,6.607,9.638c0.893-2.722,3.456-5.716,7.81-4.472c4.667,1.333,4.25,5.5,3.667,7.417
					c3.957-5.006,13.069-8.893,22.5-3.417c7.75,4.5,8.583,12.25,7.534,15.115c7.692-4.557,14.494-1.483,17.904,2.697
					C231.209,77.188,231.459,80.938,229.899,83.411z"/>
				
					<linearGradient id="SVGID_00000100377390393470771910000014972668066801059200_" gradientUnits="userSpaceOnUse" x1="40.6849" y1="85.7545" x2="220.0498" y2="85.7545">
					<stop  offset="0" style="stop-color:#EDF4FE"/>
					<stop  offset="0.5644" style="stop-color:#BDE1FE"/>
					<stop  offset="1" style="stop-color:#6BB9F0"/>
				</linearGradient>
				<path style="opacity:0.2;fill:url(#SVGID_00000100377390393470771910000014972668066801059200_);" d="M220.05,87.597
					c-2.847,0.061-6.012-0.635-9.071-2.614c-0.601,2.539-1.574,4.964-4.659,6.105c-2.361,0.869-6.498,1.624-7.771-0.068
					c-0.751,2.41-1.423,5.07-6.613,5.916c-2.573,0.423-7.807,0.219-11.025-2.153c0.186,1.678-1.273,4.277-2.263,5.682
					c-2.971,4.231-7.807,6.09-13.368,7.02c-5.473,0.914-12.59,0.589-17.417-2.078c-3.369-1.851-4.827-4.556-6.437-7.533
					c-0.415,2.327-3.359,3.076-6.374,1.995c-2.538-0.899-2.599-2.75-2.175-4.466c-1.406,3.838-3.935,7.413-7.63,9.906
					c-6.913,4.677-14.464,5.637-23.102,4.73c-8.187-0.854-15.172-6.732-14.959-13.834c-2.918,3.082-5.624,4.858-10.61,3.815
					c-2.034-0.431-5.102-2.901-4.5-6.634c-1.98,3.362-20.249,9.584-22.979-3.347c-2.793,0.491-5.331,1.254-8.231,1.314
					c-0.177,0-0.434-2.146,0.433-3.143c1.326-1.519,3.298-3.09,5.481-3.536c3.289-0.672,8.682-0.763,11.185,1.314
					c-0.036-1.806,2.661-1.783,2.979-0.438c0-2.305,3.22-10.184,12.891-11.931c5.849-1.057,13.492,2.327,15.561,6.959
					c-0.738-1.517,0.271-4.421,2.759-3.173c0.1-8.067,7.044-11.625,11.229-12.482c6.123-1.255,12.846,0.393,15.03,5.682
					c0.946-2.35,5.384-1.64,5.481,0.944c1.485-1.262,5.216-1.194,5.871,0.869c-0.088-2.425,1.693-4.796,3.859-6.496
					c4.226-3.324,9.703-5.283,15.433-4.633c4.73,0.529,9.496,2.546,11.944,6.105c2.211,3.227,2.184,6.49,2.202,10.132
					c0.106-3.513,6.321-3.022,6.366,0.196c0.305-1.612,2.546-2.561,4.933-2.025c2.086,0.476,2.883,1.564,3.599,2.871
					c-0.239-1.79,2.361-4.065,3.82-5.13c2.414-1.776,6.809-2.161,9.762-1.708c2.431,0.371,7.773,2.676,9.564,6.974
					c5.411-2.289,11.729-0.992,15.67,2.66C218.533,82.863,219.643,85.587,220.05,87.597z"/>
			</g>
			<g>
				<path style="fill:#EDF4FE;" d="M715.5,54.917c-0.167-1.75-1.333-2.875-2.841-2.917c-2.533-0.07-2.638,2.386-2.638,2.386
					s-1.575-6.353-7.688-6.135c-5.833,0.208-6.45,4.57-6.917,6.042c0.083-1.417-0.25-3.125-2.688-3.75
					c-2.059-0.528-3.687,0.958-3.937,2.063c-0.972-6.189-8.294-19.244-27.666-17.354c-5.125,0.5-10.553,2.811-14.371,8.619
					c-0.254-4.494-5.498-8.626-10.341-3.854c-0.162-7.988-11.055-11.46-16.544-6.093c-2.156-5.532-14.802-14.365-32.475-8.589
					c-8.736,2.86-16.635,10.944-15.568,18.652c-0.955-2.409-2.798-4.027-6.16-3.63c-3.82,0.458-5.24,3.291-5.063,6.688
					c-3.737-15.148-28.592-21.193-36.432-0.118c-0.513-1.419-5.213-4.022-9.692-3.489c-8.968,1.065-11.561,6.226-11.817,7.692
					c-0.702-0.544-1.809-2.272-6.029-2.963c-13.516-2.212-15.175,12.087-11.8,18.337c1.913,3.544,9.208,5.666,18.946,3.266
					c-0.391,4.8,2.143,8.833,6.283,11.909c11.977,8.938,37.417,9.937,44.292-1.293c0.2,5.677,9.509,13.816,13.875,14.907
					c20.623,5.149,30.553-5.92,34.072-10.772c2.108,3.813,8.446,5.868,13.096,5.772c5.959-0.126,11.621-1.836,14.313-8.74
					c5.501,12.208,45.65,18.291,50.207-5.109c0.062-0.312,0.136-0.624,0.159-0.914c1.956,5.497,5.988,6.445,7.747,7.245
					c3.012,1.362,17.859,3.253,21.749-7.749c0.281-0.797,0.512-1.662,0.67-2.606c0.318,1.203,2.762,3.968,6.013,3.983
					c5.212,0.031,5.985-2.082,6.243-3.898c9.834,0.5,14.758-7.761,8.584-15.75C728.249,53.083,722.249,51.917,715.5,54.917z"/>
				
					<linearGradient id="SVGID_00000066494964954591826790000018165940971525341599_" gradientUnits="userSpaceOnUse" x1="475.7762" y1="56.7677" x2="672.0059" y2="72.0411" gradientTransform="matrix(0.9997 -0.0229 0.0229 0.9997 -1.8415 12.2756)">
					<stop  offset="0" style="stop-color:#EDF4FE"/>
					<stop  offset="0.5644" style="stop-color:#BDE1FE"/>
					<stop  offset="1" style="stop-color:#6BB9F0"/>
				</linearGradient>
				<path style="fill:url(#SVGID_00000066494964954591826790000018165940971525341599_);" d="M715.834,59.25
					c-0.167-1.75-1.333-2.875-2.841-2.917c-2.533-0.07-2.638,2.386-2.638,2.386s-1.575-6.353-7.688-6.135
					c-5.833,0.208-6.45,4.57-6.917,6.042c0.083-1.417-0.25-3.125-2.688-3.75c-2.059-0.528-3.688,0.958-3.938,2.063
					c-0.972-6.189-9.248-20.078-28.532-17.436c-3.988,0.552-9.686,2.893-13.505,8.701c0.475-4.265-5.498-8.626-10.341-3.854
					c-0.162-7.988-11.055-11.46-16.544-6.093c-2.156-5.532-14.802-14.365-32.475-8.589c-8.736,2.86-16.635,10.944-15.568,18.652
					c-0.955-2.409-2.798-4.027-6.16-3.63c-3.82,0.458-5.24,3.291-5.063,6.688c-3.737-15.148-28.592-21.193-36.432-0.118
					c-0.513-1.419-5.213-4.022-9.692-3.489c-8.968,1.065-11.561,6.226-11.817,7.692c-0.702-0.544-1.809-2.272-6.029-2.963
					C483.451,50.284,482,62,485.375,68.25c1.913,3.544,9,8.25,18.738,5.849c-0.391,4.8,2.143,8.833,6.283,11.909
					c11.978,8.938,37.417,9.937,44.292-1.293c0.2,5.677,9.509,13.816,13.875,14.907c20.623,5.149,30.553-5.92,34.072-10.772
					c2.108,3.813,8.446,5.868,13.096,5.772c5.959-0.127,11.621-1.837,14.313-8.74c5.501,12.207,45.65,18.291,50.207-5.109
					c0.062-0.312,0.136-0.624,0.159-0.914c1.956,5.497,5.988,6.445,7.747,7.245c3.012,1.362,17.859,3.253,21.749-7.749
					c0.281-0.797,0.512-1.662,0.67-2.606c0.318,1.203,2.762,3.968,6.013,3.983c5.212,0.031,5.985-2.082,6.243-3.898
					c9.834,0.5,14.758-7.761,8.584-15.75C728.583,57.417,722.583,56.25,715.834,59.25z"/>
				
					<linearGradient id="SVGID_00000142178402449769917830000016294264116196046757_" gradientUnits="userSpaceOnUse" x1="560.0895" y1="45.699" x2="663.7568" y2="120.6992">
					<stop  offset="0.1029" style="stop-color:#BDE1FE"/>
					<stop  offset="0.662" style="stop-color:#87C7F5"/>
					<stop  offset="1" style="stop-color:#6BB9F0"/>
				</linearGradient>
				<path style="opacity:0.2;fill:url(#SVGID_00000142178402449769917830000016294264116196046757_);" d="M709.907,79.354
					c-3.89,11.002-18.737,9.111-21.749,7.749c-1.759-0.8-5.791-1.748-7.747-7.245c-0.023,0.29-0.097,0.603-0.159,0.914
					c-4.557,23.4-44.706,17.317-50.207,5.109c-2.692,6.903-8.354,8.613-14.313,8.74c-4.649,0.096-10.987-1.96-13.096-5.772
					c-3.519,4.852-13.449,15.921-34.072,10.772c-4.366-1.091-13.675-9.23-13.875-14.907c-6.875,11.23-32.314,10.231-44.292,1.293
					c0.52-1.342,1.97-2.235,3.645-1.164c-0.388-2.962-1.473-6.688,2.392-8.277c2.468-1.017,4.527,0.267,5.794,2.298
					c-0.843-3.612,3.391-6.139,6.387-4.147c-2.626-2.871-0.385-7.233,2.039-9.269c2.973-2.508,7.719-3.207,11.482-3.494
					c8.118-0.615,19.12,2.394,19.262,12.073c0.8-1.309,2.78-2.205,4.547-1.475c1.475,0.616,1.611,1.784,2.202,3.121
					c1.908-2.284,3.576-0.202,4.554,1.416c-0.443-10.212,1.511-18.799,13.159-20.746c12.604-2.119,20.188,8.39,20.294,19.611
					c0.535-2.413,3.34-2.207,3.763,0.084c0.503-2.512,4.025-2.903,4.999-0.544c-3.475-20.283,31.545-19.833,26.922-0.216
					c0.913-0.751,2.618-0.99,3.411-0.408c0.845,0.611,0.821,2.202,0.743,3.164c2.556-2.389,9.023-1.267,9.834,2.256
					C652.8,66.854,667.1,59.775,673.036,66.604c1.089-0.925,2.304-0.303,2,1.295c2.526-1.508,3.302,1.345,3.399,3.443
					c7.211-7.907,13.826,0.124,13.749,2.867c2.646-2.812,7.539-2.733,10.758-1.077C706.263,74.827,708.468,76.787,709.907,79.354z"
					/>
			</g>
			<g>
				<g>
					<path style="fill:#EDF4FE;" d="M325.354,118.262c1.887,0.66,8.669,2.012,13.372-2.182c0.997,1.723,2.61,3.329,5.245,3.807
						c4.022,0.729,6.869-1.584,7.855-4.207c1.93,3,4.875,5.132,10.299,5.707c11.025,1.167,15.728-4.427,16.281-6.137
						c1.746,1.55,2.387,3.12,6.16,3.44c1.92,0.17,6.453-0.62,7.428-3.44c2.115,3.29,5.848,4.04,10.815,3
						c0.727-0.15,1.432-0.41,2.092-0.74c2.42-1.22,4.111-3.51,2.83-5.78c1.422-0.06,3.08-0.21,4.09-1.24
						c1.551-1.59,0.684-4.757-1.389-5.96c-3.334-1.935-7.225-1.729-9.467,0.86c1.049-1.212,0.914-3.649-1.098-5.045
						c-1.783-1.238-4.926-1.125-6.654,0.292c1.31-7.625-7.299-12.634-15.815-12.75c-6.146-0.084-12.155,1.75-13.957,7.643
						c-0.909-1.362-1.824-2.612-5.789-2.518c-2.166,0.051-4.903,1.021-5.084,4.188c-1.491-2.417-7.557-7.188-17.114-3.75
						c-7.2,2.59-8.518,9.938-7.909,12.561c-4.563-0.082-7.251,2.21-7.548,5.05C319.536,115.463,322.741,117.342,325.354,118.262z"/>
				</g>
				<g>
					
						<linearGradient id="SVGID_00000076595475493242924140000014561591025241439629_" gradientUnits="userSpaceOnUse" x1="383.49" y1="127.4994" x2="331.7642" y2="96.6074" gradientTransform="matrix(-1 0 0 1 720.7813 0)">
						<stop  offset="0" style="stop-color:#EDF4FE"/>
						<stop  offset="0.5644" style="stop-color:#BDE1FE"/>
						<stop  offset="1" style="stop-color:#6BB9F0"/>
					</linearGradient>
					<path style="fill:url(#SVGID_00000076595475493242924140000014561591025241439629_);" d="M324.948,121.012
						c1.887,0.66,8.669,2.012,13.372-2.182c0.998,1.723,2.61,3.329,5.245,3.807c4.022,0.729,6.869-1.584,7.855-4.207
						c1.93,3,4.875,5.132,10.299,5.707c11.025,1.167,15.729-4.427,16.282-6.137c1.746,1.55,2.387,3.12,6.16,3.44
						c1.918,0.17,6.453-0.62,7.428-3.44c2.115,3.29,5.846,4.04,10.814,3c0.725-0.15,1.432-0.41,2.092-0.74
						c2.418-1.22,4.109-3.51,2.83-5.78c1.422-0.06,3.08-0.21,4.088-1.24c1.553-1.59,0.686-4.757-1.387-5.96
						c-3.334-1.935-7.227-1.729-9.469,0.86c1.051-1.212,0.914-3.649-1.096-5.045c-1.783-1.238-4.926-1.125-6.654,0.292
						c1.311-7.625-7.299-12.634-15.814-12.75c-6.146-0.084-12.156,1.75-13.958,7.643c-0.909-1.362-1.824-2.612-5.789-2.518
						c-2.166,0.051-4.902,1.021-5.083,4.188c-1.491-2.417-7.558-7.188-17.115-3.75c-7.2,2.59-8.518,9.938-7.909,12.561
						c-4.563-0.082-7.25,2.21-7.548,5.05C319.129,118.213,322.334,120.092,324.948,121.012z"/>
				</g>
				<g style="opacity:0.2;">
					
						<linearGradient id="SVGID_00000085962952737700755810000000677384948484886964_" gradientUnits="userSpaceOnUse" x1="388.2761" y1="131.0658" x2="350.065" y2="108.2452">
						<stop  offset="0" style="stop-color:#BDE1FE"/>
						<stop  offset="1" style="stop-color:#6BB9F0"/>
					</linearGradient>
					<path style="fill:url(#SVGID_00000085962952737700755810000000677384948484886964_);" d="M377.41,113.803
						c-2.169-5-9.038-3.75-10.123,0.25c-1.265-4.416-7.116-7.02-12.314-6.625c-7.682,0.583-9.647,5.459-9.466,6.375
						c-2.259-1.625-12.359-3.438-12.724,7.678c1.898-0.366,3.85-1.148,5.535-2.651c0.998,1.723,2.61,3.329,5.245,3.807
						c4.022,0.729,6.869-1.584,7.855-4.207c1.93,3,4.875,5.132,10.299,5.707c11.025,1.167,15.729-4.427,16.282-6.137
						c1.746,1.55,2.387,3.12,6.16,3.44c1.918,0.17,6.453-0.62,7.428-3.44c2.115,3.29,5.846,4.04,10.814,3
						c0.033-0.007,0.065-0.021,0.098-0.028c-0.451-2.723-2.994-8.231-10.586-10.731S378.855,111.303,377.41,113.803z"/>
				</g>
			</g>
			<g>
				<path style="fill:#EDF4FE;" d="M394.882,225.168c-4.541,1.544-10.228,2.152-15.944,1.638c-4.463-0.375-8.924-1.451-12.839-3.3
					c-1.594-0.748-5.272-2.456-5.272-2.456s-5.714,5.146-13.855,6.224c-6.942,0.912-16.128-0.422-17.668-7.158
					c-4.644,7.018-10.49,8.982-19.492,8.35c-4.88-0.351-10.413-3.298-12.188-7.393c-5.14,3.907-8.637,6.504-18.631,6.013
					c-6.864-0.329-12.317-3.977-13.648-7.977c-4.202,3.627-5.742,7.299-14.823,8.048c-4.619,0.396-15.527-1.451-17.876-8.048
					c-5.087,7.697-14.065,9.451-26.016,7.018c-1.75-0.35-3.445-0.959-5.037-1.732c-5.819-2.852-9.89-8.21-6.81-13.52
					c-3.419-0.141-7.412-0.492-9.838-2.9c-3.732-3.721-1.88-11.487,3.339-13.944c6.367-2.969,15.736-2.479,22.781,2.013
					c-3.992-2.714-1.305-6.808,0.314-8.328c3.705-3.487,7.958-3.158,10.881,1.006c-2.375-7.509,0.131-15.112,9.056-18.177
					c7.854-2.69,16.31-1.641,22.618,3.402c0.341-3.057,3.899-16.391,24.378-17.116c12.956-0.458,22.365,6.976,23.043,16.146
					c0.443-2.455,4.227-4.319,7.254-3.742c5.101,0.971,7.058,2.531,7.655,6.527c3.588-5.653,37.484-16.944,48.991,10.105
					c6.776-6.493,24.037-2.368,22.476,11.627c10.001-2.12,17.824,3.672,18.161,11.813
					C406.338,219.648,401.171,223.016,394.882,225.168z"/>
				
					<linearGradient id="SVGID_00000091711497872452552960000012724155468157796260_" gradientUnits="userSpaceOnUse" x1="182.3011" y1="196.6945" x2="405.2395" y2="196.6945">
					<stop  offset="0" style="stop-color:#EDF4FE"/>
					<stop  offset="0.5644" style="stop-color:#BDE1FE"/>
					<stop  offset="1" style="stop-color:#6BB9F0"/>
				</linearGradient>
				<path style="fill:url(#SVGID_00000091711497872452552960000012724155468157796260_);" d="M394.201,229.168
					c-4.541,1.544-10.23,2.152-15.944,1.638c-4.464-0.375-8.926-1.451-12.84-3.3c-1.594-0.748-5.272-2.456-5.272-2.456
					s-5.714,5.146-13.855,6.224c-6.942,0.912-16.128-0.422-17.667-7.158c-4.644,7.018-10.49,8.982-19.492,8.35
					c-4.88-0.351-10.413-3.298-12.188-7.393c-5.141,3.907-8.637,6.504-18.631,6.013c-6.864-0.329-12.317-3.977-13.648-7.977
					c-4.202,3.627-5.741,7.299-14.822,8.048c-4.619,0.396-15.527-1.451-17.876-8.048c-5.087,7.697-14.065,9.451-26.016,7.018
					c-1.749-0.35-3.445-0.959-5.037-1.732c-5.819-2.852-9.89-8.21-6.811-13.52c-3.419-0.141-7.412-0.492-9.837-2.9
					c-3.732-3.721-1.88-11.487,3.339-13.944c6.367-2.969,15.736-2.479,22.781,2.013c-3.992-2.714-1.305-6.808,0.314-8.328
					c3.705-3.487,7.959-3.158,10.882,1.006c-2.375-7.509,0.131-15.112,9.055-18.177c7.854-2.69,16.311-1.641,22.619,3.402
					c0.341-3.057,3.899-16.391,24.378-17.116c12.957-0.458,22.365,6.976,23.044,16.146c0.443-2.455,4.227-4.319,7.254-3.742
					c5.1,0.971,7.058,2.531,7.655,6.527c3.588-5.653,37.485-16.944,48.992,10.105c6.776-6.493,24.038-2.368,22.476,11.627
					c10.001-2.12,17.823,3.672,18.162,11.813C405.656,223.648,400.49,227.016,394.201,229.168z"/>
				
					<linearGradient id="SVGID_00000034086831113537859590000003420487788467217564_" gradientUnits="userSpaceOnUse" x1="245.2142" y1="199.3467" x2="365.8667" y2="261.2068">
					<stop  offset="0" style="stop-color:#BDE1FE"/>
					<stop  offset="1" style="stop-color:#6BB9F0"/>
				</linearGradient>
				<path style="opacity:0.2;fill:url(#SVGID_00000034086831113537859590000003420487788467217564_);" d="M380.396,228.069
					c-0.521,1.007-1.254,1.917-2.14,2.737c-4.464-0.375-8.926-1.451-12.84-3.3c-1.594-0.748-5.272-2.456-5.272-2.456
					s-5.714,5.146-13.855,6.224c-6.942,0.912-16.128-0.422-17.667-7.158c-4.644,7.018-10.49,8.982-19.492,8.35
					c-4.88-0.351-10.413-3.298-12.188-7.393c-5.141,3.907-8.637,6.504-18.631,6.013c-6.864-0.329-12.317-3.977-13.648-7.977
					c-4.202,3.627-5.741,7.299-14.822,8.048c-4.619,0.396-15.527-1.451-17.876-8.048c-5.087,7.697-14.065,9.451-26.016,7.018
					c-1.749-0.35-3.445-0.959-5.037-1.732c-4.481-3.219-1.587-10.565,5.82-9.333c-1.41-4.164-2.222-9.061,2.106-12.593
					c5.463-4.459,13.21-1.608,15.064,1.622c-0.606-2.038,2.035-4.203,4.932-2.338c0.026-2.317,1.583-10.338,12.867-11.564
					c8.062-0.877,16.204,2.764,16.309,10.82c-0.027-2.181,4.403-14.182,18.92-12.574c17.955,1.99,16.463,14.138,15.967,16.032
					c0.621-1.625,5.969-2.728,6.703,1.952c1.223-3.363,9.296-5.703,10.39,3.382c-0.078-2.503,0.239-14.355,13.074-14.949
					c15.646-0.723,16.077,12.423,16.127,14.715c0.152-1.714,5.612-7.686,12.436-3.587c2.335,1.401,2.492,3.763,2.36,4.968
					C361.557,203.553,386.632,216.185,380.396,228.069z"/>
			</g>
		</g>
	</g>
</g>
</svg>
